<svg width="400" height="400" viewBox="0 0 400 400" xmlns="http://www.w3.org/2000/svg">
  <defs>
    <!-- Gradient definitions for depth -->
    <linearGradient id="primaryGrad" x1="0%" y1="0%" x2="100%" y2="100%">
      <stop offset="0%" style="stop-color:#556280;stop-opacity:0.03"/>
      <stop offset="100%" style="stop-color:#556280;stop-opacity:0.08"/>
    </linearGradient>
    
    <linearGradient id="accentGrad" x1="0%" y1="100%" x2="100%" y2="0%">
      <stop offset="0%" style="stop-color:#556280;stop-opacity:0.02"/>
      <stop offset="100%" style="stop-color:#556280;stop-opacity:0.06"/>
    </linearGradient>
    
    <radialGradient id="circleGrad" cx="50%" cy="50%" r="50%">
      <stop offset="0%" style="stop-color:#556280;stop-opacity:0.01"/>
      <stop offset="100%" style="stop-color:#556280;stop-opacity:0.04"/>
    </radialGradient>
    
    <!-- Pattern filters for subtle depth -->
    <filter id="softShadow" x="-50%" y="-50%" width="200%" height="200%">
      <feDropShadow dx="1" dy="1" stdDeviation="2" flood-color="#556280" flood-opacity="0.02"/>
    </filter>
  </defs>
  
  <!-- Background waves - architectural foundation -->
  <path d="M0,320 Q100,300 200,320 T400,320 L400,400 L0,400 Z" 
        fill="url(#primaryGrad)" opacity="0.3"/>
  
  <path d="M0,350 Q150,330 300,350 T600,350 L600,400 L0,400 Z" 
        fill="url(#accentGrad)" opacity="0.2"/>
  
  <!-- Abstract building silhouettes -->
  <g opacity="0.15">
    <!-- Building 1 -->
    <rect x="50" y="250" width="30" height="80" fill="#556280" opacity="0.1" filter="url(#softShadow)"/>
    <rect x="55" y="240" width="20" height="10" fill="#556280" opacity="0.08"/>
    
    <!-- Building 2 -->
    <rect x="120" y="220" width="25" height="110" fill="#556280" opacity="0.12" filter="url(#softShadow)"/>
    <rect x="125" y="210" width="15" height="10" fill="#556280" opacity="0.09"/>
    
    <!-- Building 3 -->
    <rect x="180" y="260" width="35" height="70" fill="#556280" opacity="0.1" filter="url(#softShadow)"/>
    <polygon points="180,260 197.5,245 215,260" fill="#556280" opacity="0.08"/>
    
    <!-- Building 4 -->
    <rect x="280" y="240" width="28" height="90" fill="#556280" opacity="0.11" filter="url(#softShadow)"/>
    <rect x="285" y="230" width="18" height="10" fill="#556280" opacity="0.07"/>
    
    <!-- Building 5 -->
    <rect x="340" y="270" width="32" height="60" fill="#556280" opacity="0.09" filter="url(#softShadow)"/>
    <polygon points="340,270 356,255 372,270" fill="#556280" opacity="0.06"/>
  </g>
  
  <!-- Window pattern elements -->
  <g opacity="0.08">
    <rect x="60" y="270" width="4" height="6" fill="#556280"/>
    <rect x="68" y="270" width="4" height="6" fill="#556280"/>
    <rect x="60" y="285" width="4" height="6" fill="#556280"/>
    <rect x="68" y="285" width="4" height="6" fill="#556280"/>
    
    <rect x="130" y="240" width="3" height="5" fill="#556280"/>
    <rect x="136" y="240" width="3" height="5" fill="#556280"/>
    <rect x="130" y="250" width="3" height="5" fill="#556280"/>
    <rect x="136" y="250" width="3" height="5" fill="#556280"/>
    <rect x="130" y="260" width="3" height="5" fill="#556280"/>
    <rect x="136" y="260" width="3" height="5" fill="#556280"/>
    
    <rect x="190" y="280" width="5" height="7" fill="#556280"/>
    <rect x="200" y="280" width="5" height="7" fill="#556280"/>
    <rect x="190" y="295" width="5" height="7" fill="#556280"/>
    <rect x="200" y="295" width="5" height="7" fill="#556280"/>
    
    <rect x="290" y="260" width="4" height="6" fill="#556280"/>
    <rect x="298" y="260" width="4" height="6" fill="#556280"/>
    <rect x="290" y="275" width="4" height="6" fill="#556280"/>
    <rect x="298" y="275" width="4" height="6" fill="#556280"/>
    <rect x="290" y="290" width="4" height="6" fill="#556280"/>
    <rect x="298" y="290" width="4" height="6" fill="#556280"/>
    
    <rect x="350" y="285" width="4" height="6" fill="#556280"/>
    <rect x="358" y="285" width="4" height="6" fill="#556280"/>
    <rect x="350" y="300" width="4" height="6" fill="#556280"/>
    <rect x="358" y="300" width="4" height="6" fill="#556280"/>
  </g>
  
  <!-- Geometric accent elements -->
  <g opacity="0.06">
    <!-- Subtle circles for depth -->
    <circle cx="100" cy="100" r="40" fill="url(#circleGrad)"/>
    <circle cx="300" cy="150" r="35" fill="url(#circleGrad)"/>
    <circle cx="150" cy="80" r="25" fill="url(#circleGrad)"/>
    
    <!-- Abstract geometric shapes -->
    <polygon points="80,60 120,60 100,40" fill="#556280" opacity="0.04"/>
    <polygon points="250,90 290,90 270,70" fill="#556280" opacity="0.05"/>
    <polygon points="320,40 360,40 340,20" fill="#556280" opacity="0.03"/>
    
    <!-- Rectangular accent elements -->
    <rect x="30" y="150" width="80" height="2" fill="#556280" opacity="0.06"/>
    <rect x="200" y="120" width="60" height="2" fill="#556280" opacity="0.05"/>
    <rect x="320" y="180" width="70" height="2" fill="#556280" opacity="0.04"/>
  </g>
  
  <!-- Subtle diagonal lines for architectural feel -->
  <g opacity="0.03">
    <line x1="0" y1="0" x2="100" y2="100" stroke="#556280" stroke-width="1"/>
    <line x1="150" y1="0" x2="250" y2="100" stroke="#556280" stroke-width="1"/>
    <line x1="300" y1="0" x2="400" y2="100" stroke="#556280" stroke-width="1"/>
    <line x1="0" y1="150" x2="100" y2="250" stroke="#556280" stroke-width="1"/>
    <line x1="300" y1="150" x2="400" y2="250" stroke="#556280" stroke-width="1"/>
  </g>
  
  <!-- Additional wave elements for seamless tiling -->
  <path d="M0,50 Q100,30 200,50 T400,50" 
        fill="none" stroke="#556280" stroke-width="1" opacity="0.04"/>
  <path d="M0,120 Q150,100 300,120 T600,120" 
        fill="none" stroke="#556280" stroke-width="1" opacity="0.03"/>
  <path d="M0,200 Q100,180 200,200 T400,200" 
        fill="none" stroke="#556280" stroke-width="1" opacity="0.05"/>
  
  <!-- Seamless edge elements -->
  <!-- Left edge continuation -->
  <rect x="-5" y="250" width="10" height="80" fill="#556280" opacity="0.1"/>
  <rect x="-5" y="220" width="10" height="110" fill="#556280" opacity="0.12"/>
  
  <!-- Right edge continuation -->
  <rect x="395" y="270" width="10" height="60" fill="#556280" opacity="0.09"/>
  <rect x="395" y="240" width="10" height="90" fill="#556280" opacity="0.11"/>
  
  <!-- Top edge continuation -->
  <path d="M0,-5 Q100,-25 200,-5 T400,-5 L400,5 Q300,25 200,5 T0,5 Z" 
        fill="url(#primaryGrad)" opacity="0.2"/>
  
  <!-- Bottom edge continuation -->
  <path d="M0,395 Q150,375 300,395 T600,395 L600,405 Q450,425 300,405 T0,405 Z" 
        fill="url(#accentGrad)" opacity="0.25"/>
</svg>